<?xml version="1.0" encoding="UTF-8" standalone="no"?><!DOCTYPE svg PUBLIC "-//W3C//DTD SVG 1.1//EN" "http://www.w3.org/Graphics/SVG/1.1/DTD/svg11.dtd"><svg width="24px" height="22px" version="1.1" xmlns="http://www.w3.org/2000/svg" xmlns:xlink="http://www.w3.org/1999/xlink" xml:space="preserve" xmlns:serif="http://www.serif.com/" style="fill-rule:evenodd;clip-rule:evenodd;stroke-linejoin:round;stroke-miterlimit:2;"><g transform="matrix(1,0,0,1,0,-1)"><path d="M12,5.18L20.63,21L3.37,21L12,5.18ZM12,1L0,23L24,23L12,1ZM11,10L13,10L13,16L11,16L11,10ZM12,19.75C11.314,19.75 10.75,19.186 10.75,18.5C10.75,17.814 11.314,17.25 12,17.25C12.686,17.25 13.25,17.814 13.25,18.5C13.25,19.186 12.686,19.75 12,19.75Z" style="fill:rgb(255,0,0);fill-rule:nonzero;"/></g></svg>